# xmcd
#
# Track frame offsets: 
#        150
#        14267
#        34247
#        49390
#        55660
#        70205
#        91435
#        109795
#        118150
#        128492
#        147925
#        161497
#        182455
#        198590
#
# Disc length: 2821 seconds
#
# Revision: 8
# Processed by: cddbd v1.5.2PL0 Copyright (c) Steve Scherf et al.
# Submitted via: ExactAudioCopyFreeDBPlugin 1.0
#
DISCID=c20b030e
DTITLE=Neil Diamond - Hot August Night [CD1)
DYEAR=1972
DGENRE=Rock
TTITLE0=Prologue
TTITLE1=Crunchy Granola Suite
TTITLE2=Done Too Soon
TTITLE3=Dialogue
TTITLE4=Solitary Man
TTITLE5=Cherry Cherry
TTITLE6=Sweet Caroline
TTITLE7=Porcupine Pie
TTITLE8=You're So Sweet Horseflies Keep Hangin' 'Round Your Face
TTITLE9=Red Red Wine
TTITLE10=Soggy Pretzels
TTITLE11=And The Grass Won't Pay No Mind
TTITLE12=Shilo
TTITLE13=Girl, You'll Be A Woman Soon
EXTD=
EXTT0=
EXTT1=
EXTT2=
EXTT3=
EXTT4=
EXTT5=
EXTT6=
EXTT7=
EXTT8=
EXTT9=
EXTT10=
EXTT11=
EXTT12=
EXTT13=
PLAYORDER=
